<mxfile host="app.diagrams.net" modified="2024-06-25T16:16:43.919Z" agent="Mozilla/5.0 (Windows NT 10.0; Win64; x64) AppleWebKit/537.36 (KHTML, like Gecko) Chrome/124.0.0.0 Safari/537.36 Edg/124.0.0.0" version="24.6.2" etag="B5LLIhLBoBErywq_U7As" type="github">
  <diagram name="ページ1" id="plL28cPLtNXrAj45hcRd">
    <mxGraphModel>
      <root>
        <mxCell id="0" />
        <mxCell id="1" parent="0" />
      </root>
    </mxGraphModel>
  </diagram>
</mxfile>
